<mxfile host="app.diagrams.net" modified="2022-05-11T13:02:10.300Z" agent="5.0 (X11)" etag="ZuvYAOtZk7-0n0xpTZH3" version="18.0.3" type="github">
  <diagram id="fetL5gzYO9fl1kKE9Upe" name="Page-1">
    <mxGraphModel dx="1422" dy="788" grid="1" gridSize="10" guides="1" tooltips="1" connect="1" arrows="1" fold="1" page="1" pageScale="1" pageWidth="850" pageHeight="1100" math="0" shadow="0">
      <root>
        <mxCell id="0" />
        <mxCell id="1" parent="0" />
        <mxCell id="k4AF4Bed6HhczU2TGuJx-2" style="edgeStyle=orthogonalEdgeStyle;rounded=0;orthogonalLoop=1;jettySize=auto;html=1;exitX=0.5;exitY=1;exitDx=0;exitDy=0;" edge="1" parent="1" source="k4AF4Bed6HhczU2TGuJx-1" target="k4AF4Bed6HhczU2TGuJx-3">
          <mxGeometry relative="1" as="geometry">
            <mxPoint x="350" y="390" as="targetPoint" />
          </mxGeometry>
        </mxCell>
        <mxCell id="k4AF4Bed6HhczU2TGuJx-1" value="&lt;div&gt;Program Start&lt;/div&gt;&lt;div&gt;&lt;br&gt;&lt;/div&gt;" style="rounded=0;whiteSpace=wrap;html=1;" vertex="1" parent="1">
          <mxGeometry x="290" y="210" width="120" height="60" as="geometry" />
        </mxCell>
        <mxCell id="k4AF4Bed6HhczU2TGuJx-4" style="edgeStyle=orthogonalEdgeStyle;rounded=0;orthogonalLoop=1;jettySize=auto;html=1;exitX=0.5;exitY=1;exitDx=0;exitDy=0;" edge="1" parent="1" source="k4AF4Bed6HhczU2TGuJx-3">
          <mxGeometry relative="1" as="geometry">
            <mxPoint x="350" y="520" as="targetPoint" />
          </mxGeometry>
        </mxCell>
        <mxCell id="k4AF4Bed6HhczU2TGuJx-6" style="edgeStyle=orthogonalEdgeStyle;rounded=0;orthogonalLoop=1;jettySize=auto;html=1;exitX=0;exitY=0.5;exitDx=0;exitDy=0;entryX=0;entryY=0.5;entryDx=0;entryDy=0;" edge="1" parent="1" source="k4AF4Bed6HhczU2TGuJx-3" target="k4AF4Bed6HhczU2TGuJx-7">
          <mxGeometry relative="1" as="geometry">
            <mxPoint x="250" y="630" as="targetPoint" />
            <Array as="points">
              <mxPoint x="150" y="390" />
              <mxPoint x="150" y="680" />
            </Array>
          </mxGeometry>
        </mxCell>
        <mxCell id="k4AF4Bed6HhczU2TGuJx-3" value="While&amp;nbsp; TableFlag == true" style="rhombus;whiteSpace=wrap;html=1;" vertex="1" parent="1">
          <mxGeometry x="310" y="350" width="80" height="80" as="geometry" />
        </mxCell>
        <mxCell id="k4AF4Bed6HhczU2TGuJx-10" style="edgeStyle=orthogonalEdgeStyle;rounded=0;orthogonalLoop=1;jettySize=auto;html=1;exitX=0;exitY=0.5;exitDx=0;exitDy=0;" edge="1" parent="1" source="k4AF4Bed6HhczU2TGuJx-5">
          <mxGeometry relative="1" as="geometry">
            <mxPoint x="230" y="680" as="targetPoint" />
          </mxGeometry>
        </mxCell>
        <mxCell id="k4AF4Bed6HhczU2TGuJx-5" value="While GameFlag == true" style="rhombus;whiteSpace=wrap;html=1;" vertex="1" parent="1">
          <mxGeometry x="310" y="490" width="80" height="80" as="geometry" />
        </mxCell>
        <mxCell id="k4AF4Bed6HhczU2TGuJx-8" style="edgeStyle=orthogonalEdgeStyle;rounded=0;orthogonalLoop=1;jettySize=auto;html=1;exitX=1;exitY=0.5;exitDx=0;exitDy=0;entryX=1;entryY=0.5;entryDx=0;entryDy=0;" edge="1" parent="1" source="k4AF4Bed6HhczU2TGuJx-7" target="k4AF4Bed6HhczU2TGuJx-3">
          <mxGeometry relative="1" as="geometry">
            <Array as="points">
              <mxPoint x="580" y="680" />
              <mxPoint x="580" y="390" />
            </Array>
          </mxGeometry>
        </mxCell>
        <mxCell id="k4AF4Bed6HhczU2TGuJx-7" value="While RoundFlag == true" style="rhombus;whiteSpace=wrap;html=1;" vertex="1" parent="1">
          <mxGeometry x="310" y="640" width="80" height="80" as="geometry" />
        </mxCell>
        <mxCell id="k4AF4Bed6HhczU2TGuJx-11" value="" style="swimlane;startSize=0;" vertex="1" parent="1">
          <mxGeometry x="250" y="720" width="230" height="200" as="geometry" />
        </mxCell>
        <mxCell id="k4AF4Bed6HhczU2TGuJx-12" value="Create 3 players in the player list" style="text;html=1;align=center;verticalAlign=middle;resizable=0;points=[];autosize=1;strokeColor=none;fillColor=none;" vertex="1" parent="k4AF4Bed6HhczU2TGuJx-11">
          <mxGeometry x="15" y="20" width="200" height="20" as="geometry" />
        </mxCell>
        <mxCell id="k4AF4Bed6HhczU2TGuJx-13" value="Print &quot;There are three players at this table&quot;" style="text;html=1;align=center;verticalAlign=middle;resizable=0;points=[];autosize=1;strokeColor=none;fillColor=none;" vertex="1" parent="k4AF4Bed6HhczU2TGuJx-11">
          <mxGeometry x="-15" y="50" width="260" height="20" as="geometry" />
        </mxCell>
      </root>
    </mxGraphModel>
  </diagram>
</mxfile>
